<svg xmlns="http://www.w3.org/2000/svg" viewBox="4.282 27.617 115.83 28" width="115.83px" height="28px">
  <path d="M 17.326 28.988 C 17.326 28.237 16.707 27.617 15.956 27.617 L 11.371 27.617 C 11.002 27.617 10.659 27.762 10.396 28.013 L 4.677 33.731 C 4.414 33.995 4.282 34.337 4.282 34.706 L 4.282 39.292 C 4.282 40.043 4.901 40.662 5.652 40.662 L 15.956 40.662 C 16.707 40.662 17.326 40.043 17.326 39.292 L 17.326 28.988 Z" fill="black" style="stroke-width: 1;" transform="matrix(1, 0, 0, 1, 0, 2.7755575615628914e-17)"/>
  <path d="M 32.611 34.158 C 32.611 34.54 32.414 34.856 32.005 35.041 C 31.004 35.463 30.015 35.897 29.014 36.319 C 28.685 36.464 28.447 36.701 28.316 37.017 C 27.907 37.966 27.512 38.915 27.103 39.85 C 27.038 40.009 26.958 40.153 26.866 40.285 C 26.537 40.825 25.47 40.812 25.166 40.088 C 24.837 39.323 24.481 38.559 24.126 37.808 C 23.941 37.413 23.73 37.017 23.506 36.635 C 23.427 36.504 23.256 36.411 23.111 36.345 C 22.228 35.95 21.332 35.555 20.436 35.173 C 20.357 35.133 20.278 35.107 20.212 35.067 C 19.79 34.896 19.566 34.58 19.566 34.119 C 19.566 33.657 19.817 33.354 20.225 33.183 C 21.214 32.761 22.202 32.327 23.19 31.905 C 23.533 31.76 23.77 31.523 23.915 31.18 C 24.323 30.218 24.745 29.256 25.153 28.295 C 25.43 27.623 26.089 27.478 26.563 27.741 C 26.787 27.86 26.985 28.11 27.09 28.347 C 27.525 29.296 27.934 30.245 28.329 31.207 C 28.474 31.549 28.698 31.773 29.027 31.918 C 30.015 32.34 31.004 32.761 31.992 33.196 C 32.387 33.368 32.624 33.671 32.624 34.171 L 32.611 34.158 Z" fill="black" style="stroke-width: 1;" transform="matrix(1, 0, 0, 1, 0, 2.7755575615628914e-17)"/>
  <path d="M 17.34 49.082 C 17.34 52.692 14.414 55.604 10.817 55.604 C 7.22 55.604 4.282 52.692 4.282 49.082 C 4.282 45.472 7.207 42.56 10.804 42.56 C 14.401 42.56 17.326 45.485 17.326 49.082 L 17.34 49.082 Z" fill="black" style="stroke-width: 1;" transform="matrix(1, 0, 0, 1, 0, 2.7755575615628914e-17)"/>
  <path d="M 19.58 47.791 L 19.58 54.827 C 19.58 55.262 19.935 55.617 20.37 55.617 L 27.406 55.617 C 30.292 55.617 32.638 53.272 32.638 50.386 L 32.638 43.35 C 32.638 42.915 32.282 42.56 31.847 42.56 L 24.811 42.56 C 21.925 42.56 19.58 44.905 19.58 47.791 Z" fill="black" style="stroke-width: 1;" transform="matrix(1, 0, 0, 1, 0, 2.7755575615628914e-17)"/>
  <path d="M 95.85 48.231 L 95.85 35.859 L 97.967 35.859 L 98.296 38.164 L 98.461 38.164 C 99.213 36.565 100.742 35.624 102.6 35.624 C 105.352 35.624 106.881 37.623 106.881 40.681 L 106.881 48.231 L 104.435 48.231 L 104.435 40.916 C 104.435 38.752 103.447 37.741 101.683 37.741 C 99.613 37.741 98.273 39.364 98.273 41.739 L 98.273 48.231 L 95.85 48.231 Z" fill="black" style="stroke-width: 1;" transform="matrix(1, 0, 0, 1, 0, 2.7755575615628914e-17)"/>
  <path d="M 81.903 41.827 C 81.903 37.805 84.279 35.406 87.901 35.406 C 91.405 35.406 93.898 37.734 93.898 41.827 C 93.898 45.684 91.688 48.248 87.901 48.248 C 84.185 48.248 81.903 45.778 81.903 41.827 Z M 84.373 42.838 C 84.373 45.073 85.949 46.225 87.901 46.225 C 89.877 46.225 91.405 45.049 91.405 42.838 L 91.405 40.91 C 91.405 38.793 89.924 37.452 87.901 37.452 C 85.808 37.452 84.373 38.793 84.373 40.91 L 84.373 42.838 Z" fill="black" style="stroke-width: 1;" transform="matrix(1, 0, 0, 1, 0, 2.7755575615628914e-17)"/>
  <path xmlns="http://www.w3.org/2000/svg" d="M 53.114 41.935 C 53.114 37.913 55.489 35.514 59.111 35.514 C 62.616 35.514 65.109 37.842 65.109 41.935 C 65.109 45.792 62.898 48.356 59.111 48.356 C 55.395 48.356 53.114 45.886 53.114 41.935 Z M 55.583 42.946 C 55.583 45.181 57.159 46.333 59.111 46.333 C 61.087 46.333 62.616 45.157 62.616 42.946 L 62.616 41.018 C 62.616 38.901 61.134 37.56 59.111 37.56 C 57.018 37.56 55.583 38.901 55.583 41.018 L 55.583 42.946 Z" fill="black" style="stroke-width: 1;" transform="matrix(1, 0, 0, 1, 0, 2.7755575615628914e-17)"/>
  <path d="M 67.951 52.049 L 67.951 35.749 L 70.091 35.749 L 70.373 37.937 L 70.538 37.937 C 71.338 36.384 72.937 35.514 74.889 35.514 C 78.088 35.514 79.993 37.842 79.993 41.864 C 79.993 45.933 78.064 48.215 74.889 48.215 C 72.772 48.215 71.267 47.274 70.538 45.792 L 70.373 45.792 L 70.373 52.049 L 67.951 52.049 Z M 74.113 46.216 C 76.183 46.216 77.476 45.016 77.476 43.04 L 77.476 40.688 C 77.476 38.807 76.277 37.537 74.113 37.537 C 71.855 37.537 70.373 38.971 70.373 41.159 L 70.373 42.57 C 70.373 44.757 71.878 46.216 74.113 46.216 Z" fill="black" style="stroke-width: 1;" transform="matrix(1, 0, 0, 1, 0, 2.7755575615628914e-17)"/>
  <path d="M 53.114 41.935 C 53.114 37.913 55.489 35.514 59.111 35.514 C 62.616 35.514 65.109 37.842 65.109 41.935 C 65.109 45.792 62.898 48.356 59.111 48.356 C 55.395 48.356 53.114 45.886 53.114 41.935 Z M 55.583 42.946 C 55.583 45.181 57.159 46.333 59.111 46.333 C 61.087 46.333 62.616 45.157 62.616 42.946 L 62.616 41.018 C 62.616 38.901 61.134 37.56 59.111 37.56 C 57.018 37.56 55.583 38.901 55.583 41.018 L 55.583 42.946 Z" fill="black" style="stroke-width: 1;" transform="matrix(1, 0, 0, 1, 0, 2.7755575615628914e-17)"/>
  <path d="M 48.142 45.557 C 50.612 45.557 52.023 46.804 52.023 48.756 C 52.023 51.296 49.624 52.425 45.908 52.425 C 42.191 52.425 40.545 51.249 40.545 49.485 C 40.545 48.215 41.298 47.392 42.427 47.039 L 42.427 46.874 C 41.697 46.615 41.18 45.933 41.18 45.134 C 41.18 44.169 41.862 43.346 42.873 43.04 L 42.873 42.876 C 41.697 42.194 41.039 40.994 41.039 39.606 C 41.039 37.16 42.991 35.514 45.766 35.514 C 46.566 35.514 47.319 35.655 47.907 35.867 L 47.907 35.49 C 47.907 34.361 48.542 33.821 49.812 33.821 L 51.811 33.821 L 51.811 35.796 L 49.483 35.796 L 49.483 36.808 C 50.212 37.49 50.659 38.525 50.659 39.677 C 50.659 42.1 48.753 43.699 46.002 43.699 C 45.367 43.699 44.826 43.628 44.332 43.511 C 43.744 43.652 43.414 44.099 43.414 44.569 C 43.414 45.51 44.402 45.557 45.014 45.557 L 48.142 45.557 Z M 43.438 39.23 L 43.438 40.03 C 43.438 41.206 44.402 41.982 45.861 41.982 C 47.295 41.982 48.283 41.206 48.283 40.03 L 48.283 39.23 C 48.283 38.054 47.319 37.254 45.861 37.254 C 44.402 37.254 43.438 38.031 43.438 39.23 Z M 46.072 50.637 C 48.612 50.637 49.6 49.955 49.6 48.873 C 49.6 47.533 48.213 47.533 47.883 47.533 L 44.685 47.533 C 43.414 47.533 42.826 48.121 42.826 48.991 C 42.826 50.167 43.885 50.637 46.072 50.637 Z" fill="black" style="stroke-width: 1;" transform="matrix(1, 0, 0, 1, 0, 2.7755575615628914e-17)"/>
  <path d="M 116.231 45.572 C 118.701 45.572 120.112 46.819 120.112 48.771 C 120.112 51.311 117.713 52.44 113.997 52.44 C 110.28 52.44 108.634 51.264 108.634 49.5 C 108.634 48.23 109.387 47.407 110.516 47.054 L 110.516 46.889 C 109.786 46.63 109.269 45.948 109.269 45.149 C 109.269 44.184 109.951 43.361 110.962 43.055 L 110.962 42.891 C 109.786 42.209 109.128 41.009 109.128 39.621 C 109.128 37.175 111.08 35.529 113.855 35.529 C 114.655 35.529 115.408 35.67 115.996 35.882 L 115.996 35.505 C 115.996 34.376 116.631 33.836 117.901 33.836 L 119.9 33.836 L 119.9 35.811 L 117.572 35.811 L 117.572 36.823 C 118.301 37.505 118.748 38.54 118.748 39.692 C 118.748 42.115 116.842 43.714 114.091 43.714 C 113.456 43.714 112.915 43.643 112.421 43.526 C 111.833 43.667 111.503 44.114 111.503 44.584 C 111.503 45.525 112.491 45.572 113.103 45.572 L 116.231 45.572 Z M 111.527 39.245 L 111.527 40.045 C 111.527 41.221 112.491 41.997 113.95 41.997 C 115.384 41.997 116.372 41.221 116.372 40.045 L 116.372 39.245 C 116.372 38.069 115.408 37.269 113.95 37.269 C 112.491 37.269 111.527 38.046 111.527 39.245 Z M 114.161 50.652 C 116.701 50.652 117.689 49.97 117.689 48.888 C 117.689 47.548 116.302 47.548 115.972 47.548 L 112.774 47.548 C 111.503 47.548 110.915 48.136 110.915 49.006 C 110.915 50.182 111.974 50.652 114.161 50.652 Z" fill="black" style="stroke-width: 1;" transform="matrix(1, 0, 0, 1, 0, 2.7755575615628914e-17)"/>
</svg>
